<svg width="999" height="399" viewBox="0 0 999 399" fill="none" xmlns="http://www.w3.org/2000/svg">
<rect width="999" height="399" rx="10" fill="white"/>
<path d="M231.034 195V160.091H238.295V173.216H238.517C238.835 172.511 239.295 171.795 239.898 171.068C240.511 170.33 241.307 169.716 242.284 169.227C243.273 168.727 244.5 168.477 245.966 168.477C247.875 168.477 249.636 168.977 251.25 169.977C252.864 170.966 254.153 172.46 255.119 174.46C256.085 176.449 256.568 178.943 256.568 181.943C256.568 184.864 256.097 187.33 255.153 189.341C254.222 191.341 252.949 192.858 251.335 193.892C249.733 194.915 247.938 195.426 245.949 195.426C244.54 195.426 243.341 195.193 242.352 194.727C241.375 194.261 240.574 193.676 239.949 192.972C239.324 192.256 238.847 191.534 238.517 190.807H238.193V195H231.034ZM238.142 181.909C238.142 183.466 238.358 184.824 238.79 185.983C239.222 187.142 239.847 188.045 240.665 188.693C241.483 189.33 242.477 189.648 243.648 189.648C244.83 189.648 245.83 189.324 246.648 188.676C247.466 188.017 248.085 187.108 248.506 185.949C248.938 184.778 249.153 183.432 249.153 181.909C249.153 180.398 248.943 179.068 248.523 177.92C248.102 176.773 247.483 175.875 246.665 175.227C245.847 174.58 244.841 174.256 243.648 174.256C242.466 174.256 241.466 174.568 240.648 175.193C239.841 175.818 239.222 176.705 238.79 177.852C238.358 179 238.142 180.352 238.142 181.909ZM278.203 183.852V168.818H285.464V195H278.493V190.244H278.22C277.629 191.778 276.646 193.011 275.271 193.943C273.908 194.875 272.243 195.341 270.277 195.341C268.527 195.341 266.987 194.943 265.658 194.148C264.328 193.352 263.288 192.222 262.538 190.756C261.8 189.29 261.425 187.534 261.413 185.489V168.818H268.675V184.193C268.686 185.739 269.101 186.96 269.919 187.858C270.737 188.756 271.834 189.205 273.209 189.205C274.084 189.205 274.902 189.006 275.663 188.608C276.425 188.199 277.038 187.597 277.504 186.801C277.982 186.006 278.214 185.023 278.203 183.852ZM298.534 179.864V195H291.273V168.818H298.193V173.438H298.5C299.08 171.915 300.051 170.71 301.415 169.824C302.778 168.926 304.432 168.477 306.375 168.477C308.193 168.477 309.778 168.875 311.131 169.67C312.483 170.466 313.534 171.602 314.284 173.08C315.034 174.545 315.409 176.295 315.409 178.33V195H308.148V179.625C308.159 178.023 307.75 176.773 306.92 175.875C306.091 174.966 304.949 174.511 303.494 174.511C302.517 174.511 301.653 174.722 300.903 175.142C300.165 175.562 299.585 176.176 299.165 176.983C298.756 177.778 298.545 178.739 298.534 179.864ZM337.445 177.784V183.545H321.524V177.784H337.445ZM353.28 195.426C351.291 195.426 349.49 194.915 347.876 193.892C346.274 192.858 345.001 191.341 344.058 189.341C343.126 187.33 342.661 184.864 342.661 181.943C342.661 178.943 343.143 176.449 344.109 174.46C345.075 172.46 346.359 170.966 347.962 169.977C349.575 168.977 351.342 168.477 353.263 168.477C354.729 168.477 355.95 168.727 356.928 169.227C357.916 169.716 358.712 170.33 359.314 171.068C359.928 171.795 360.393 172.511 360.712 173.216H360.933V160.091H368.178V195H361.018V190.807H360.712C360.371 191.534 359.888 192.256 359.263 192.972C358.649 193.676 357.848 194.261 356.859 194.727C355.882 195.193 354.689 195.426 353.28 195.426ZM355.581 189.648C356.751 189.648 357.74 189.33 358.547 188.693C359.365 188.045 359.99 187.142 360.422 185.983C360.865 184.824 361.087 183.466 361.087 181.909C361.087 180.352 360.871 179 360.439 177.852C360.007 176.705 359.382 175.818 358.564 175.193C357.746 174.568 356.751 174.256 355.581 174.256C354.388 174.256 353.382 174.58 352.564 175.227C351.746 175.875 351.126 176.773 350.706 177.92C350.286 179.068 350.075 180.398 350.075 181.909C350.075 183.432 350.286 184.778 350.706 185.949C351.138 187.108 351.757 188.017 352.564 188.676C353.382 189.324 354.388 189.648 355.581 189.648ZM385.977 195.511C383.33 195.511 381.04 194.949 379.108 193.824C377.188 192.687 375.705 191.108 374.659 189.085C373.614 187.051 373.091 184.693 373.091 182.011C373.091 179.307 373.614 176.943 374.659 174.92C375.705 172.886 377.188 171.307 379.108 170.182C381.04 169.045 383.33 168.477 385.977 168.477C388.625 168.477 390.909 169.045 392.83 170.182C394.761 171.307 396.25 172.886 397.295 174.92C398.341 176.943 398.864 179.307 398.864 182.011C398.864 184.693 398.341 187.051 397.295 189.085C396.25 191.108 394.761 192.687 392.83 193.824C390.909 194.949 388.625 195.511 385.977 195.511ZM386.011 189.886C387.216 189.886 388.222 189.545 389.028 188.864C389.835 188.17 390.443 187.227 390.852 186.034C391.273 184.841 391.483 183.483 391.483 181.96C391.483 180.438 391.273 179.08 390.852 177.886C390.443 176.693 389.835 175.75 389.028 175.057C388.222 174.364 387.216 174.017 386.011 174.017C384.795 174.017 383.773 174.364 382.943 175.057C382.125 175.75 381.506 176.693 381.085 177.886C380.676 179.08 380.472 180.438 380.472 181.96C380.472 183.483 380.676 184.841 381.085 186.034C381.506 187.227 382.125 188.17 382.943 188.864C383.773 189.545 384.795 189.886 386.011 189.886ZM415.415 195.511C412.733 195.511 410.426 194.943 408.494 193.807C406.574 192.659 405.097 191.068 404.062 189.034C403.04 187 402.528 184.659 402.528 182.011C402.528 179.33 403.045 176.977 404.08 174.955C405.125 172.92 406.608 171.335 408.528 170.199C410.449 169.051 412.733 168.477 415.381 168.477C417.665 168.477 419.665 168.892 421.381 169.722C423.097 170.551 424.455 171.716 425.455 173.216C426.455 174.716 427.006 176.477 427.108 178.5H420.256C420.063 177.193 419.551 176.142 418.722 175.347C417.903 174.54 416.83 174.136 415.5 174.136C414.375 174.136 413.392 174.443 412.551 175.057C411.722 175.659 411.074 176.54 410.608 177.699C410.142 178.858 409.909 180.261 409.909 181.909C409.909 183.58 410.136 185 410.591 186.17C411.057 187.341 411.71 188.233 412.551 188.847C413.392 189.46 414.375 189.767 415.5 189.767C416.33 189.767 417.074 189.597 417.733 189.256C418.403 188.915 418.955 188.42 419.386 187.773C419.83 187.114 420.119 186.324 420.256 185.403H427.108C426.994 187.403 426.449 189.165 425.472 190.688C424.506 192.199 423.17 193.381 421.466 194.233C419.761 195.085 417.744 195.511 415.415 195.511Z" fill="black"/>
<path d="M230.634 222.636C230.634 220.591 230.892 218.659 231.409 216.841C231.926 215.023 232.668 213.318 233.634 211.727H235.014C234.599 212.398 234.219 213.156 233.872 214.003C233.531 214.849 233.236 215.753 232.986 216.713C232.736 217.673 232.543 218.656 232.406 219.662C232.27 220.662 232.202 221.653 232.202 222.636C232.202 223.949 232.321 225.273 232.56 226.608C232.798 227.943 233.128 229.21 233.548 230.409C233.974 231.608 234.463 232.653 235.014 233.545H233.634C232.668 231.949 231.926 230.241 231.409 228.423C230.892 226.605 230.634 224.676 230.634 222.636ZM241.979 230.298C241.19 230.298 240.468 230.145 239.815 229.838C239.161 229.526 238.641 229.077 238.255 228.491C237.869 227.901 237.675 227.185 237.675 226.344C237.675 225.696 237.798 225.151 238.042 224.707C238.286 224.264 238.633 223.901 239.082 223.616C239.531 223.332 240.062 223.108 240.675 222.943C241.289 222.778 241.965 222.651 242.704 222.56C243.437 222.469 244.056 222.389 244.562 222.321C245.073 222.253 245.462 222.145 245.729 221.997C245.996 221.849 246.13 221.611 246.13 221.281V220.974C246.13 220.082 245.863 219.381 245.329 218.869C244.8 218.352 244.039 218.094 243.045 218.094C242.102 218.094 241.332 218.301 240.735 218.716C240.144 219.131 239.729 219.619 239.491 220.182L238.05 219.662C238.346 218.946 238.755 218.375 239.278 217.949C239.8 217.517 240.386 217.207 241.033 217.02C241.681 216.827 242.337 216.73 243.002 216.73C243.502 216.73 244.022 216.795 244.562 216.926C245.107 217.057 245.613 217.284 246.079 217.608C246.545 217.926 246.923 218.372 247.212 218.946C247.502 219.514 247.647 220.236 247.647 221.111V230H246.13V227.929H246.036C245.854 228.315 245.585 228.69 245.227 229.054C244.869 229.418 244.42 229.716 243.88 229.949C243.34 230.182 242.707 230.298 241.979 230.298ZM242.184 228.909C242.991 228.909 243.69 228.73 244.281 228.372C244.871 228.014 245.326 227.54 245.644 226.949C245.968 226.352 246.13 225.696 246.13 224.98V223.088C246.016 223.196 245.826 223.293 245.559 223.378C245.298 223.463 244.994 223.54 244.647 223.608C244.306 223.67 243.965 223.724 243.624 223.77C243.283 223.815 242.977 223.855 242.704 223.889C241.965 223.98 241.335 224.122 240.812 224.315C240.289 224.509 239.888 224.776 239.61 225.116C239.332 225.452 239.192 225.884 239.192 226.412C239.192 227.207 239.477 227.824 240.045 228.261C240.613 228.693 241.326 228.909 242.184 228.909ZM258.433 234.909V216.909H259.907V219.406H260.086C260.268 219.014 260.518 218.614 260.836 218.205C261.154 217.79 261.575 217.44 262.097 217.156C262.626 216.872 263.29 216.73 264.092 216.73C265.171 216.73 266.114 217.014 266.921 217.582C267.734 218.145 268.364 218.935 268.813 219.952C269.268 220.963 269.495 222.142 269.495 223.489C269.495 224.841 269.268 226.026 268.813 227.043C268.364 228.06 267.734 228.852 266.921 229.42C266.114 229.989 265.177 230.273 264.109 230.273C263.319 230.273 262.657 230.131 262.123 229.847C261.594 229.562 261.165 229.213 260.836 228.798C260.512 228.378 260.262 227.969 260.086 227.571H259.95V234.909H258.433ZM259.933 223.463C259.933 224.52 260.089 225.457 260.401 226.276C260.719 227.088 261.174 227.727 261.765 228.193C262.362 228.653 263.083 228.884 263.93 228.884C264.799 228.884 265.532 228.645 266.129 228.168C266.731 227.685 267.188 227.034 267.501 226.216C267.819 225.398 267.978 224.48 267.978 223.463C267.978 222.457 267.822 221.551 267.509 220.744C267.202 219.937 266.748 219.298 266.146 218.827C265.543 218.349 264.805 218.111 263.93 218.111C263.077 218.111 262.353 218.341 261.756 218.801C261.16 219.256 260.705 219.886 260.393 220.693C260.086 221.494 259.933 222.418 259.933 223.463ZM272.823 230V216.909H274.298V218.92H274.408C274.67 218.261 275.124 217.73 275.772 217.327C276.425 216.918 277.164 216.713 277.988 216.713C278.113 216.713 278.252 216.716 278.406 216.722C278.559 216.727 278.687 216.733 278.789 216.739V218.281C278.721 218.27 278.602 218.253 278.431 218.23C278.261 218.207 278.076 218.196 277.877 218.196C277.195 218.196 276.587 218.341 276.053 218.631C275.525 218.915 275.107 219.31 274.8 219.815C274.494 220.321 274.34 220.898 274.34 221.545V230H272.823ZM286.067 230.273C284.937 230.273 283.937 229.986 283.067 229.412C282.204 228.838 281.528 228.045 281.039 227.034C280.55 226.017 280.306 224.844 280.306 223.514C280.306 222.173 280.55 220.994 281.039 219.977C281.528 218.955 282.204 218.159 283.067 217.591C283.937 217.017 284.937 216.73 286.067 216.73C287.198 216.73 288.195 217.017 289.059 217.591C289.923 218.165 290.599 218.96 291.087 219.977C291.582 220.994 291.829 222.173 291.829 223.514C291.829 224.844 291.585 226.017 291.096 227.034C290.607 228.045 289.928 228.838 289.059 229.412C288.195 229.986 287.198 230.273 286.067 230.273ZM286.067 228.884C286.977 228.884 287.746 228.639 288.377 228.151C289.008 227.662 289.485 227.011 289.809 226.199C290.138 225.386 290.303 224.491 290.303 223.514C290.303 222.537 290.138 221.639 289.809 220.821C289.485 220.003 289.008 219.347 288.377 218.852C287.746 218.358 286.977 218.111 286.067 218.111C285.164 218.111 284.394 218.358 283.758 218.852C283.127 219.347 282.647 220.003 282.317 220.821C281.994 221.639 281.832 222.537 281.832 223.514C281.832 224.491 281.994 225.386 282.317 226.199C282.647 227.011 283.127 227.662 283.758 228.151C284.388 228.639 285.158 228.884 286.067 228.884ZM300.273 230.273C299.102 230.273 298.082 229.98 297.213 229.395C296.349 228.81 295.679 228.009 295.202 226.991C294.724 225.974 294.486 224.815 294.486 223.514C294.486 222.202 294.727 221.034 295.21 220.011C295.699 218.989 296.375 218.187 297.239 217.608C298.102 217.023 299.105 216.73 300.247 216.73C301.122 216.73 301.915 216.901 302.625 217.241C303.335 217.577 303.92 218.051 304.381 218.665C304.847 219.273 305.139 219.983 305.259 220.795H303.724C303.565 220.057 303.182 219.426 302.574 218.903C301.972 218.375 301.205 218.111 300.273 218.111C299.438 218.111 298.699 218.338 298.057 218.793C297.415 219.241 296.912 219.869 296.548 220.676C296.19 221.477 296.011 222.406 296.011 223.463C296.011 224.526 296.188 225.466 296.54 226.284C296.892 227.097 297.386 227.733 298.023 228.193C298.665 228.653 299.415 228.884 300.273 228.884C300.852 228.884 301.381 228.776 301.858 228.56C302.341 228.338 302.744 228.026 303.068 227.622C303.398 227.219 303.619 226.739 303.733 226.182H305.267C305.153 226.972 304.872 227.676 304.423 228.295C303.98 228.909 303.403 229.392 302.693 229.744C301.989 230.097 301.182 230.273 300.273 230.273ZM313.811 230.273C312.589 230.273 311.533 229.989 310.641 229.42C309.749 228.847 309.058 228.054 308.57 227.043C308.087 226.026 307.845 224.855 307.845 223.531C307.845 222.213 308.087 221.043 308.57 220.02C309.058 218.991 309.732 218.187 310.589 217.608C311.453 217.023 312.45 216.73 313.581 216.73C314.291 216.73 314.976 216.861 315.635 217.122C316.294 217.378 316.885 217.773 317.408 218.307C317.936 218.835 318.354 219.503 318.661 220.31C318.967 221.111 319.121 222.06 319.121 223.156V223.906H308.893V222.568H317.57C317.57 221.727 317.399 220.972 317.058 220.301C316.723 219.625 316.254 219.091 315.652 218.699C315.055 218.307 314.365 218.111 313.581 218.111C312.751 218.111 312.021 218.332 311.391 218.776C310.76 219.219 310.266 219.804 309.908 220.531C309.555 221.259 309.376 222.054 309.371 222.918V223.719C309.371 224.759 309.55 225.668 309.908 226.446C310.271 227.219 310.786 227.818 311.45 228.244C312.115 228.67 312.902 228.884 313.811 228.884C314.43 228.884 314.973 228.787 315.439 228.594C315.911 228.401 316.305 228.142 316.624 227.818C316.947 227.489 317.192 227.128 317.357 226.736L318.797 227.205C318.598 227.756 318.271 228.264 317.817 228.73C317.368 229.196 316.805 229.571 316.129 229.855C315.459 230.134 314.686 230.273 313.811 230.273ZM327.177 230.273C326.103 230.273 325.163 229.989 324.356 229.42C323.549 228.852 322.918 228.06 322.464 227.043C322.015 226.026 321.79 224.841 321.79 223.489C321.79 222.142 322.015 220.963 322.464 219.952C322.918 218.935 323.552 218.145 324.364 217.582C325.177 217.014 326.123 216.73 327.202 216.73C327.998 216.73 328.66 216.872 329.188 217.156C329.717 217.435 330.14 217.781 330.458 218.196C330.776 218.611 331.023 219.014 331.2 219.406H331.336V212.545H332.862V230H331.379V227.571H331.2C331.023 227.969 330.773 228.378 330.45 228.798C330.126 229.213 329.697 229.562 329.163 229.847C328.634 230.131 327.972 230.273 327.177 230.273ZM327.356 228.884C328.202 228.884 328.924 228.653 329.521 228.193C330.117 227.727 330.572 227.088 330.884 226.276C331.202 225.457 331.362 224.52 331.362 223.463C331.362 222.418 331.205 221.494 330.893 220.693C330.58 219.886 330.126 219.256 329.529 218.801C328.933 218.341 328.208 218.111 327.356 218.111C326.481 218.111 325.742 218.349 325.14 218.827C324.543 219.298 324.089 219.937 323.776 220.744C323.469 221.551 323.316 222.457 323.316 223.463C323.316 224.48 323.472 225.398 323.785 226.216C324.097 227.034 324.552 227.685 325.148 228.168C325.751 228.645 326.487 228.884 327.356 228.884ZM345.501 224.997V216.909H347.018V230H345.501V227.827H345.381C345.075 228.497 344.589 229.057 343.924 229.506C343.259 229.949 342.447 230.17 341.487 230.17C340.651 230.17 339.91 229.989 339.262 229.625C338.614 229.256 338.106 228.716 337.737 228.006C337.367 227.295 337.183 226.423 337.183 225.389V216.909H338.7V225.295C338.7 226.318 339.001 227.142 339.603 227.767C340.205 228.386 340.978 228.696 341.921 228.696C342.512 228.696 343.08 228.554 343.626 228.27C344.171 227.986 344.62 227.571 344.972 227.026C345.325 226.474 345.501 225.798 345.501 224.997ZM351.034 230V216.909H352.509V218.92H352.619C352.881 218.261 353.335 217.73 353.983 217.327C354.636 216.918 355.375 216.713 356.199 216.713C356.324 216.713 356.463 216.716 356.616 216.722C356.77 216.727 356.898 216.733 357 216.739V218.281C356.932 218.27 356.813 218.253 356.642 218.23C356.472 218.207 356.287 218.196 356.088 218.196C355.406 218.196 354.798 218.341 354.264 218.631C353.736 218.915 353.318 219.31 353.011 219.815C352.705 220.321 352.551 220.898 352.551 221.545V230H351.034ZM363.245 230.298C362.455 230.298 361.734 230.145 361.08 229.838C360.427 229.526 359.907 229.077 359.521 228.491C359.134 227.901 358.941 227.185 358.941 226.344C358.941 225.696 359.063 225.151 359.308 224.707C359.552 224.264 359.898 223.901 360.347 223.616C360.796 223.332 361.327 223.108 361.941 222.943C362.555 222.778 363.231 222.651 363.969 222.56C364.702 222.469 365.322 222.389 365.827 222.321C366.339 222.253 366.728 222.145 366.995 221.997C367.262 221.849 367.396 221.611 367.396 221.281V220.974C367.396 220.082 367.129 219.381 366.594 218.869C366.066 218.352 365.305 218.094 364.31 218.094C363.367 218.094 362.597 218.301 362.001 218.716C361.41 219.131 360.995 219.619 360.756 220.182L359.316 219.662C359.612 218.946 360.021 218.375 360.543 217.949C361.066 217.517 361.651 217.207 362.299 217.02C362.947 216.827 363.603 216.73 364.268 216.73C364.768 216.73 365.288 216.795 365.827 216.926C366.373 217.057 366.879 217.284 367.344 217.608C367.81 217.926 368.188 218.372 368.478 218.946C368.768 219.514 368.913 220.236 368.913 221.111V230H367.396V227.929H367.302C367.12 228.315 366.85 228.69 366.492 229.054C366.134 229.418 365.685 229.716 365.146 229.949C364.606 230.182 363.972 230.298 363.245 230.298ZM363.45 228.909C364.256 228.909 364.955 228.73 365.546 228.372C366.137 228.014 366.592 227.54 366.91 226.949C367.234 226.352 367.396 225.696 367.396 224.98V223.088C367.282 223.196 367.092 223.293 366.825 223.378C366.563 223.463 366.259 223.54 365.913 223.608C365.572 223.67 365.231 223.724 364.89 223.77C364.549 223.815 364.242 223.855 363.969 223.889C363.231 223.98 362.6 224.122 362.077 224.315C361.555 224.509 361.154 224.776 360.876 225.116C360.597 225.452 360.458 225.884 360.458 226.412C360.458 227.207 360.742 227.824 361.31 228.261C361.879 228.693 362.592 228.909 363.45 228.909ZM374.465 212.545V230H372.948V212.545H374.465ZM389.942 230.273C388.869 230.273 387.928 229.989 387.121 229.42C386.315 228.852 385.684 228.06 385.229 227.043C384.781 226.026 384.556 224.841 384.556 223.489C384.556 222.142 384.781 220.963 385.229 219.952C385.684 218.935 386.317 218.145 387.13 217.582C387.942 217.014 388.888 216.73 389.968 216.73C390.763 216.73 391.425 216.872 391.954 217.156C392.482 217.435 392.906 217.781 393.224 218.196C393.542 218.611 393.789 219.014 393.965 219.406H394.102V212.545H395.627V230H394.144V227.571H393.965C393.789 227.969 393.539 228.378 393.215 228.798C392.891 229.213 392.462 229.562 391.928 229.847C391.4 230.131 390.738 230.273 389.942 230.273ZM390.121 228.884C390.968 228.884 391.69 228.653 392.286 228.193C392.883 227.727 393.337 227.088 393.65 226.276C393.968 225.457 394.127 224.52 394.127 223.463C394.127 222.418 393.971 221.494 393.658 220.693C393.346 219.886 392.891 219.256 392.295 218.801C391.698 218.341 390.974 218.111 390.121 218.111C389.246 218.111 388.508 218.349 387.906 218.827C387.309 219.298 386.854 219.937 386.542 220.744C386.235 221.551 386.082 222.457 386.082 223.463C386.082 224.48 386.238 225.398 386.55 226.216C386.863 227.034 387.317 227.685 387.914 228.168C388.516 228.645 389.252 228.884 390.121 228.884ZM405.036 230.273C403.906 230.273 402.906 229.986 402.036 229.412C401.173 228.838 400.496 228.045 400.008 227.034C399.519 226.017 399.275 224.844 399.275 223.514C399.275 222.173 399.519 220.994 400.008 219.977C400.496 218.955 401.173 218.159 402.036 217.591C402.906 217.017 403.906 216.73 405.036 216.73C406.167 216.73 407.164 217.017 408.028 217.591C408.891 218.165 409.567 218.96 410.056 219.977C410.55 220.994 410.798 222.173 410.798 223.514C410.798 224.844 410.553 226.017 410.065 227.034C409.576 228.045 408.897 228.838 408.028 229.412C407.164 229.986 406.167 230.273 405.036 230.273ZM405.036 228.884C405.945 228.884 406.715 228.639 407.346 228.151C407.977 227.662 408.454 227.011 408.778 226.199C409.107 225.386 409.272 224.491 409.272 223.514C409.272 222.537 409.107 221.639 408.778 220.821C408.454 220.003 407.977 219.347 407.346 218.852C406.715 218.358 405.945 218.111 405.036 218.111C404.133 218.111 403.363 218.358 402.727 218.852C402.096 219.347 401.616 220.003 401.286 220.821C400.962 221.639 400.8 222.537 400.8 223.514C400.8 224.491 400.962 225.386 401.286 226.199C401.616 227.011 402.096 227.662 402.727 228.151C403.357 228.639 404.127 228.884 405.036 228.884ZM419.241 230.273C418.071 230.273 417.051 229.98 416.182 229.395C415.318 228.81 414.648 228.009 414.17 226.991C413.693 225.974 413.455 224.815 413.455 223.514C413.455 222.202 413.696 221.034 414.179 220.011C414.668 218.989 415.344 218.187 416.207 217.608C417.071 217.023 418.074 216.73 419.216 216.73C420.091 216.73 420.884 216.901 421.594 217.241C422.304 217.577 422.889 218.051 423.349 218.665C423.815 219.273 424.108 219.983 424.227 220.795H422.693C422.534 220.057 422.151 219.426 421.543 218.903C420.94 218.375 420.173 218.111 419.241 218.111C418.406 218.111 417.668 218.338 417.026 218.793C416.384 219.241 415.881 219.869 415.517 220.676C415.159 221.477 414.98 222.406 414.98 223.463C414.98 224.526 415.156 225.466 415.509 226.284C415.861 227.097 416.355 227.733 416.991 228.193C417.634 228.653 418.384 228.884 419.241 228.884C419.821 228.884 420.349 228.776 420.827 228.56C421.31 228.338 421.713 228.026 422.037 227.622C422.366 227.219 422.588 226.739 422.702 226.182H424.236C424.122 226.972 423.841 227.676 423.392 228.295C422.949 228.909 422.372 229.392 421.662 229.744C420.957 230.097 420.151 230.273 419.241 230.273ZM435.805 224.997V216.909H437.322V230H435.805V227.827H435.686C435.379 228.497 434.893 229.057 434.229 229.506C433.564 229.949 432.751 230.17 431.791 230.17C430.956 230.17 430.214 229.989 429.567 229.625C428.919 229.256 428.411 228.716 428.041 228.006C427.672 227.295 427.487 226.423 427.487 225.389V216.909H429.004V225.295C429.004 226.318 429.305 227.142 429.908 227.767C430.51 228.386 431.283 228.696 432.226 228.696C432.817 228.696 433.385 228.554 433.93 228.27C434.476 227.986 434.925 227.571 435.277 227.026C435.629 226.474 435.805 225.798 435.805 224.997ZM441.339 230V216.909H442.813V218.92H442.95C443.211 218.244 443.646 217.713 444.254 217.327C444.867 216.935 445.603 216.739 446.461 216.739C447.364 216.739 448.106 216.952 448.685 217.378C449.271 217.798 449.708 218.378 449.998 219.116H450.109C450.404 218.389 450.884 217.812 451.549 217.386C452.219 216.955 453.032 216.739 453.987 216.739C455.202 216.739 456.163 217.122 456.867 217.889C457.572 218.651 457.924 219.764 457.924 221.23V230H456.407V221.23C456.407 220.196 456.143 219.42 455.614 218.903C455.086 218.386 454.39 218.128 453.526 218.128C452.526 218.128 451.756 218.435 451.217 219.048C450.677 219.662 450.407 220.44 450.407 221.384V230H448.856V221.094C448.856 220.207 448.609 219.491 448.114 218.946C447.62 218.401 446.924 218.128 446.026 218.128C445.424 218.128 444.881 218.276 444.398 218.571C443.921 218.866 443.543 219.278 443.265 219.807C442.992 220.33 442.856 220.932 442.856 221.614V230H441.339ZM467.233 230.273C466.011 230.273 464.955 229.989 464.062 229.42C463.17 228.847 462.48 228.054 461.991 227.043C461.509 226.026 461.267 224.855 461.267 223.531C461.267 222.213 461.509 221.043 461.991 220.02C462.48 218.991 463.153 218.187 464.011 217.608C464.875 217.023 465.872 216.73 467.003 216.73C467.713 216.73 468.398 216.861 469.057 217.122C469.716 217.378 470.307 217.773 470.83 218.307C471.358 218.835 471.776 219.503 472.082 220.31C472.389 221.111 472.543 222.06 472.543 223.156V223.906H462.315V222.568H470.991C470.991 221.727 470.821 220.972 470.48 220.301C470.145 219.625 469.676 219.091 469.074 218.699C468.477 218.307 467.787 218.111 467.003 218.111C466.173 218.111 465.443 218.332 464.812 218.776C464.182 219.219 463.688 219.804 463.33 220.531C462.977 221.259 462.798 222.054 462.793 222.918V223.719C462.793 224.759 462.972 225.668 463.33 226.446C463.693 227.219 464.207 227.818 464.872 228.244C465.537 228.67 466.324 228.884 467.233 228.884C467.852 228.884 468.395 228.787 468.861 228.594C469.332 228.401 469.727 228.142 470.045 227.818C470.369 227.489 470.614 227.128 470.778 226.736L472.219 227.205C472.02 227.756 471.693 228.264 471.239 228.73C470.79 229.196 470.227 229.571 469.551 229.855C468.881 230.134 468.108 230.273 467.233 230.273ZM477.403 221.818V230H475.886V216.909H477.36V218.963H477.496C477.803 218.293 478.281 217.756 478.928 217.352C479.582 216.943 480.388 216.739 481.349 216.739C482.229 216.739 483.002 216.923 483.667 217.293C484.337 217.656 484.857 218.193 485.227 218.903C485.602 219.614 485.789 220.486 485.789 221.52V230H484.272V221.614C484.272 220.54 483.971 219.69 483.369 219.065C482.772 218.44 481.971 218.128 480.965 218.128C480.278 218.128 479.667 218.276 479.133 218.571C478.599 218.866 478.175 219.293 477.863 219.849C477.556 220.401 477.403 221.057 477.403 221.818ZM494.94 216.909V218.23H488.693V216.909H494.94ZM490.645 213.773H492.17V226.582C492.17 227.128 492.264 227.557 492.452 227.869C492.639 228.176 492.884 228.395 493.185 228.526C493.486 228.651 493.807 228.713 494.148 228.713C494.347 228.713 494.517 228.702 494.659 228.679C494.801 228.651 494.926 228.622 495.034 228.594L495.358 229.966C495.21 230.023 495.028 230.074 494.812 230.119C494.597 230.17 494.33 230.196 494.011 230.196C493.455 230.196 492.918 230.074 492.401 229.83C491.889 229.585 491.469 229.222 491.139 228.739C490.81 228.256 490.645 227.656 490.645 226.94V213.773ZM502.042 230.298C501.252 230.298 500.531 230.145 499.877 229.838C499.224 229.526 498.704 229.077 498.317 228.491C497.931 227.901 497.738 227.185 497.738 226.344C497.738 225.696 497.86 225.151 498.104 224.707C498.349 224.264 498.695 223.901 499.144 223.616C499.593 223.332 500.124 223.108 500.738 222.943C501.352 222.778 502.028 222.651 502.766 222.56C503.499 222.469 504.119 222.389 504.624 222.321C505.136 222.253 505.525 222.145 505.792 221.997C506.059 221.849 506.192 221.611 506.192 221.281V220.974C506.192 220.082 505.925 219.381 505.391 218.869C504.863 218.352 504.102 218.094 503.107 218.094C502.164 218.094 501.394 218.301 500.798 218.716C500.207 219.131 499.792 219.619 499.553 220.182L498.113 219.662C498.408 218.946 498.817 218.375 499.34 217.949C499.863 217.517 500.448 217.207 501.096 217.02C501.744 216.827 502.4 216.73 503.065 216.73C503.565 216.73 504.085 216.795 504.624 216.926C505.17 217.057 505.675 217.284 506.141 217.608C506.607 217.926 506.985 218.372 507.275 218.946C507.565 219.514 507.71 220.236 507.71 221.111V230H506.192V227.929H506.099C505.917 228.315 505.647 228.69 505.289 229.054C504.931 229.418 504.482 229.716 503.942 229.949C503.403 230.182 502.769 230.298 502.042 230.298ZM502.246 228.909C503.053 228.909 503.752 228.73 504.343 228.372C504.934 228.014 505.388 227.54 505.707 226.949C506.031 226.352 506.192 225.696 506.192 224.98V223.088C506.079 223.196 505.888 223.293 505.621 223.378C505.36 223.463 505.056 223.54 504.71 223.608C504.369 223.67 504.028 223.724 503.687 223.77C503.346 223.815 503.039 223.855 502.766 223.889C502.028 223.98 501.397 224.122 500.874 224.315C500.352 224.509 499.951 224.776 499.673 225.116C499.394 225.452 499.255 225.884 499.255 226.412C499.255 227.207 499.539 227.824 500.107 228.261C500.675 228.693 501.388 228.909 502.246 228.909ZM516.901 216.909V218.23H510.654V216.909H516.901ZM512.606 213.773H514.131V226.582C514.131 227.128 514.225 227.557 514.413 227.869C514.6 228.176 514.844 228.395 515.146 228.526C515.447 228.651 515.768 228.713 516.109 228.713C516.308 228.713 516.478 228.702 516.62 228.679C516.762 228.651 516.887 228.622 516.995 228.594L517.319 229.966C517.171 230.023 516.989 230.074 516.773 230.119C516.558 230.17 516.29 230.196 515.972 230.196C515.415 230.196 514.879 230.074 514.362 229.83C513.85 229.585 513.43 229.222 513.1 228.739C512.771 228.256 512.606 227.656 512.606 226.94V213.773ZM520.364 230V216.909H521.889V230H520.364ZM521.139 214.659C520.827 214.659 520.56 214.554 520.338 214.344C520.116 214.128 520.006 213.869 520.006 213.568C520.006 213.267 520.116 213.011 520.338 212.801C520.56 212.585 520.827 212.477 521.139 212.477C521.452 212.477 521.719 212.585 521.94 212.801C522.162 213.011 522.273 213.267 522.273 213.568C522.273 213.869 522.162 214.128 521.94 214.344C521.719 214.554 521.452 214.659 521.139 214.659ZM530.989 230.273C529.859 230.273 528.859 229.986 527.989 229.412C527.126 228.838 526.45 228.045 525.961 227.034C525.472 226.017 525.228 224.844 525.228 223.514C525.228 222.173 525.472 220.994 525.961 219.977C526.45 218.955 527.126 218.159 527.989 217.591C528.859 217.017 529.859 216.73 530.989 216.73C532.12 216.73 533.117 217.017 533.981 217.591C534.844 218.165 535.521 218.96 536.009 219.977C536.504 220.994 536.751 222.173 536.751 223.514C536.751 224.844 536.506 226.017 536.018 227.034C535.529 228.045 534.85 228.838 533.981 229.412C533.117 229.986 532.12 230.273 530.989 230.273ZM530.989 228.884C531.898 228.884 532.668 228.639 533.299 228.151C533.93 227.662 534.407 227.011 534.731 226.199C535.06 225.386 535.225 224.491 535.225 223.514C535.225 222.537 535.06 221.639 534.731 220.821C534.407 220.003 533.93 219.347 533.299 218.852C532.668 218.358 531.898 218.111 530.989 218.111C530.086 218.111 529.316 218.358 528.68 218.852C528.049 219.347 527.569 220.003 527.239 220.821C526.915 221.639 526.754 222.537 526.754 223.514C526.754 224.491 526.915 225.386 527.239 226.199C527.569 227.011 528.049 227.662 528.68 228.151C529.31 228.639 530.08 228.884 530.989 228.884ZM541.598 221.818V230H540.081V216.909H541.555V218.963H541.692C541.999 218.293 542.476 217.756 543.124 217.352C543.777 216.943 544.584 216.739 545.544 216.739C546.425 216.739 547.197 216.923 547.862 217.293C548.533 217.656 549.053 218.193 549.422 218.903C549.797 219.614 549.984 220.486 549.984 221.52V230H548.467V221.614C548.467 220.54 548.166 219.69 547.564 219.065C546.967 218.44 546.166 218.128 545.161 218.128C544.473 218.128 543.862 218.276 543.328 218.571C542.794 218.866 542.371 219.293 542.058 219.849C541.751 220.401 541.598 221.057 541.598 221.818ZM564.386 230.298C563.596 230.298 562.874 230.145 562.221 229.838C561.567 229.526 561.048 229.077 560.661 228.491C560.275 227.901 560.082 227.185 560.082 226.344C560.082 225.696 560.204 225.151 560.448 224.707C560.692 224.264 561.039 223.901 561.488 223.616C561.937 223.332 562.468 223.108 563.082 222.943C563.695 222.778 564.371 222.651 565.11 222.56C565.843 222.469 566.462 222.389 566.968 222.321C567.479 222.253 567.869 222.145 568.136 221.997C568.403 221.849 568.536 221.611 568.536 221.281V220.974C568.536 220.082 568.269 219.381 567.735 218.869C567.207 218.352 566.445 218.094 565.451 218.094C564.508 218.094 563.738 218.301 563.141 218.716C562.55 219.131 562.136 219.619 561.897 220.182L560.457 219.662C560.752 218.946 561.161 218.375 561.684 217.949C562.207 217.517 562.792 217.207 563.44 217.02C564.087 216.827 564.744 216.73 565.408 216.73C565.908 216.73 566.428 216.795 566.968 216.926C567.513 217.057 568.019 217.284 568.485 217.608C568.951 217.926 569.329 218.372 569.619 218.946C569.908 219.514 570.053 220.236 570.053 221.111V230H568.536V227.929H568.442C568.261 228.315 567.991 228.69 567.633 229.054C567.275 229.418 566.826 229.716 566.286 229.949C565.746 230.182 565.113 230.298 564.386 230.298ZM564.59 228.909C565.397 228.909 566.096 228.73 566.687 228.372C567.278 228.014 567.732 227.54 568.05 226.949C568.374 226.352 568.536 225.696 568.536 224.98V223.088C568.423 223.196 568.232 223.293 567.965 223.378C567.704 223.463 567.4 223.54 567.053 223.608C566.712 223.67 566.371 223.724 566.031 223.77C565.69 223.815 565.383 223.855 565.11 223.889C564.371 223.98 563.741 224.122 563.218 224.315C562.695 224.509 562.295 224.776 562.016 225.116C561.738 225.452 561.599 225.884 561.599 226.412C561.599 227.207 561.883 227.824 562.451 228.261C563.019 228.693 563.732 228.909 564.59 228.909ZM575.606 221.818V230H574.089V216.909H575.563V218.963H575.7C576.006 218.293 576.484 217.756 577.131 217.352C577.785 216.943 578.592 216.739 579.552 216.739C580.433 216.739 581.205 216.923 581.87 217.293C582.54 217.656 583.06 218.193 583.43 218.903C583.805 219.614 583.992 220.486 583.992 221.52V230H582.475V221.614C582.475 220.54 582.174 219.69 581.572 219.065C580.975 218.44 580.174 218.128 579.168 218.128C578.481 218.128 577.87 218.276 577.336 218.571C576.802 218.866 576.379 219.293 576.066 219.849C575.759 220.401 575.606 221.057 575.606 221.818ZM592.7 230.273C591.626 230.273 590.686 229.989 589.879 229.42C589.072 228.852 588.442 228.06 587.987 227.043C587.538 226.026 587.314 224.841 587.314 223.489C587.314 222.142 587.538 220.963 587.987 219.952C588.442 218.935 589.075 218.145 589.888 217.582C590.7 217.014 591.646 216.73 592.726 216.73C593.521 216.73 594.183 216.872 594.712 217.156C595.24 217.435 595.663 217.781 595.982 218.196C596.3 218.611 596.547 219.014 596.723 219.406H596.859V212.545H598.385V230H596.902V227.571H596.723C596.547 227.969 596.297 228.378 595.973 228.798C595.649 229.213 595.22 229.562 594.686 229.847C594.158 230.131 593.496 230.273 592.7 230.273ZM592.879 228.884C593.726 228.884 594.447 228.653 595.044 228.193C595.641 227.727 596.095 227.088 596.408 226.276C596.726 225.457 596.885 224.52 596.885 223.463C596.885 222.418 596.729 221.494 596.416 220.693C596.104 219.886 595.649 219.256 595.053 218.801C594.456 218.341 593.732 218.111 592.879 218.111C592.004 218.111 591.266 218.349 590.663 218.827C590.067 219.298 589.612 219.937 589.3 220.744C588.993 221.551 588.839 222.457 588.839 223.463C588.839 224.48 588.996 225.398 589.308 226.216C589.621 227.034 590.075 227.685 590.672 228.168C591.274 228.645 592.01 228.884 592.879 228.884ZM612.362 230L608.408 216.909H610.01L613.112 227.707H613.223L616.317 216.909H617.928L620.996 227.682H621.115L624.217 216.909H625.82L621.865 230H620.297L617.195 219.27H617.033L613.93 230H612.362ZM633.616 230.273C632.394 230.273 631.337 229.989 630.445 229.42C629.553 228.847 628.863 228.054 628.374 227.043C627.891 226.026 627.65 224.855 627.65 223.531C627.65 222.213 627.891 221.043 628.374 220.02C628.863 218.991 629.536 218.187 630.394 217.608C631.258 217.023 632.255 216.73 633.386 216.73C634.096 216.73 634.781 216.861 635.44 217.122C636.099 217.378 636.69 217.773 637.212 218.307C637.741 218.835 638.158 219.503 638.465 220.31C638.772 221.111 638.925 222.06 638.925 223.156V223.906H628.698V222.568H637.374C637.374 221.727 637.204 220.972 636.863 220.301C636.528 219.625 636.059 219.091 635.457 218.699C634.86 218.307 634.17 218.111 633.386 218.111C632.556 218.111 631.826 218.332 631.195 218.776C630.565 219.219 630.07 219.804 629.712 220.531C629.36 221.259 629.181 222.054 629.175 222.918V223.719C629.175 224.759 629.354 225.668 629.712 226.446C630.076 227.219 630.59 227.818 631.255 228.244C631.92 228.67 632.707 228.884 633.616 228.884C634.235 228.884 634.778 228.787 635.244 228.594C635.715 228.401 636.11 228.142 636.428 227.818C636.752 227.489 636.996 227.128 637.161 226.736L638.602 227.205C638.403 227.756 638.076 228.264 637.621 228.73C637.173 229.196 636.61 229.571 635.934 229.855C635.263 230.134 634.491 230.273 633.616 230.273ZM642.584 230V212.545H644.109V219.406H644.246C644.416 219.014 644.661 218.611 644.979 218.196C645.303 217.781 645.726 217.435 646.249 217.156C646.777 216.872 647.442 216.73 648.243 216.73C649.317 216.73 650.26 217.014 651.072 217.582C651.885 218.145 652.518 218.935 652.973 219.952C653.428 220.963 653.655 222.142 653.655 223.489C653.655 224.841 653.428 226.026 652.973 227.043C652.524 228.06 651.893 228.852 651.081 229.42C650.274 229.989 649.337 230.273 648.268 230.273C647.473 230.273 646.808 230.131 646.274 229.847C645.746 229.562 645.32 229.213 644.996 228.798C644.672 228.378 644.422 227.969 644.246 227.571H644.058V230H642.584ZM644.084 223.463C644.084 224.52 644.24 225.457 644.553 226.276C644.871 227.088 645.325 227.727 645.916 228.193C646.513 228.653 647.234 228.884 648.081 228.884C648.95 228.884 649.686 228.645 650.288 228.168C650.891 227.685 651.348 227.034 651.661 226.216C651.973 225.398 652.129 224.48 652.129 223.463C652.129 222.457 651.973 221.551 651.661 220.744C651.354 219.937 650.899 219.298 650.297 218.827C649.695 218.349 648.956 218.111 648.081 218.111C647.229 218.111 646.504 218.341 645.908 218.801C645.317 219.256 644.865 219.886 644.553 220.693C644.24 221.494 644.084 222.418 644.084 223.463ZM665.783 219.781L664.393 220.173C664.257 219.781 664.064 219.426 663.814 219.108C663.564 218.79 663.237 218.537 662.834 218.349C662.436 218.162 661.942 218.068 661.351 218.068C660.464 218.068 659.737 218.278 659.169 218.699C658.601 219.119 658.317 219.662 658.317 220.327C658.317 220.889 658.51 221.347 658.896 221.699C659.288 222.045 659.891 222.321 660.703 222.526L662.68 223.011C663.777 223.278 664.598 223.702 665.143 224.281C665.695 224.861 665.97 225.588 665.97 226.463C665.97 227.202 665.766 227.858 665.357 228.432C664.947 229.006 664.376 229.457 663.643 229.787C662.916 230.111 662.072 230.273 661.112 230.273C659.834 230.273 658.78 229.986 657.95 229.412C657.121 228.832 656.589 227.997 656.357 226.906L657.814 226.548C658.001 227.327 658.368 227.915 658.913 228.312C659.464 228.71 660.189 228.909 661.087 228.909C662.092 228.909 662.896 228.685 663.499 228.236C664.101 227.781 664.402 227.213 664.402 226.531C664.402 226.003 664.226 225.56 663.874 225.202C663.521 224.838 662.987 224.571 662.271 224.401L660.132 223.889C658.996 223.616 658.155 223.185 657.609 222.594C657.064 222.003 656.791 221.27 656.791 220.395C656.791 219.673 656.987 219.04 657.379 218.494C657.771 217.943 658.311 217.511 658.999 217.199C659.686 216.886 660.47 216.73 661.351 216.73C662.55 216.73 663.507 217.003 664.223 217.548C664.945 218.088 665.464 218.832 665.783 219.781ZM669.309 230V216.909H670.835V230H669.309ZM670.085 214.659C669.772 214.659 669.505 214.554 669.283 214.344C669.062 214.128 668.951 213.869 668.951 213.568C668.951 213.267 669.062 213.011 669.283 212.801C669.505 212.585 669.772 212.477 670.085 212.477C670.397 212.477 670.664 212.585 670.886 212.801C671.107 213.011 671.218 213.267 671.218 213.568C671.218 213.869 671.107 214.128 670.886 214.344C670.664 214.554 670.397 214.659 670.085 214.659ZM680.003 216.909V218.23H673.756V216.909H680.003ZM675.707 213.773H677.233V226.582C677.233 227.128 677.327 227.557 677.514 227.869C677.702 228.176 677.946 228.395 678.247 228.526C678.548 228.651 678.869 228.713 679.21 228.713C679.409 228.713 679.58 228.702 679.722 228.679C679.864 228.651 679.989 228.622 680.097 228.594L680.42 229.966C680.273 230.023 680.091 230.074 679.875 230.119C679.659 230.17 679.392 230.196 679.074 230.196C678.517 230.196 677.98 230.074 677.463 229.83C676.952 229.585 676.531 229.222 676.202 228.739C675.872 228.256 675.707 227.656 675.707 226.94V213.773ZM688.6 230.273C687.379 230.273 686.322 229.989 685.43 229.42C684.538 228.847 683.847 228.054 683.359 227.043C682.876 226.026 682.634 224.855 682.634 223.531C682.634 222.213 682.876 221.043 683.359 220.02C683.847 218.991 684.521 218.187 685.379 217.608C686.242 217.023 687.239 216.73 688.37 216.73C689.08 216.73 689.765 216.861 690.424 217.122C691.083 217.378 691.674 217.773 692.197 218.307C692.725 218.835 693.143 219.503 693.45 220.31C693.756 221.111 693.91 222.06 693.91 223.156V223.906H683.683V222.568H692.359C692.359 221.727 692.188 220.972 691.847 220.301C691.512 219.625 691.043 219.091 690.441 218.699C689.844 218.307 689.154 218.111 688.37 218.111C687.54 218.111 686.81 218.332 686.18 218.776C685.549 219.219 685.055 219.804 684.697 220.531C684.344 221.259 684.165 222.054 684.16 222.918V223.719C684.16 224.759 684.339 225.668 684.697 226.446C685.06 227.219 685.575 227.818 686.239 228.244C686.904 228.67 687.691 228.884 688.6 228.884C689.219 228.884 689.762 228.787 690.228 228.594C690.7 228.401 691.094 228.142 691.413 227.818C691.737 227.489 691.981 227.128 692.146 226.736L693.586 227.205C693.387 227.756 693.06 228.264 692.606 228.73C692.157 229.196 691.594 229.571 690.918 229.855C690.248 230.134 689.475 230.273 688.6 230.273ZM708.997 235.182C708.105 235.182 707.324 235.065 706.653 234.832C705.983 234.605 705.418 234.293 704.957 233.895C704.497 233.497 704.139 233.051 703.884 232.557L705.128 231.739C705.315 232.068 705.565 232.392 705.878 232.71C706.196 233.028 706.608 233.293 707.114 233.503C707.625 233.713 708.253 233.818 708.997 233.818C710.156 233.818 711.091 233.528 711.801 232.949C712.517 232.369 712.875 231.469 712.875 230.247V227.298H712.739C712.563 227.696 712.31 228.094 711.98 228.491C711.651 228.884 711.219 229.21 710.685 229.472C710.156 229.733 709.5 229.864 708.716 229.864C707.67 229.864 706.741 229.605 705.929 229.088C705.122 228.571 704.486 227.832 704.02 226.872C703.56 225.906 703.33 224.756 703.33 223.42C703.33 222.097 703.554 220.932 704.003 219.926C704.457 218.92 705.091 218.136 705.903 217.574C706.716 217.011 707.662 216.73 708.741 216.73C709.543 216.73 710.207 216.872 710.736 217.156C711.264 217.435 711.688 217.781 712.006 218.196C712.33 218.611 712.582 219.014 712.764 219.406H712.918V216.909H714.401V230.341C714.401 231.449 714.165 232.361 713.693 233.077C713.222 233.793 712.58 234.321 711.767 234.662C710.955 235.009 710.031 235.182 708.997 235.182ZM708.895 228.474C709.736 228.474 710.455 228.273 711.051 227.869C711.648 227.46 712.105 226.875 712.423 226.114C712.741 225.352 712.901 224.446 712.901 223.395C712.901 222.372 712.744 221.466 712.432 220.676C712.119 219.881 711.665 219.256 711.068 218.801C710.477 218.341 709.753 218.111 708.895 218.111C708.02 218.111 707.281 218.347 706.679 218.818C706.077 219.29 705.622 219.926 705.315 220.727C705.009 221.523 704.855 222.412 704.855 223.395C704.855 224.395 705.011 225.278 705.324 226.045C705.636 226.807 706.094 227.403 706.696 227.835C707.298 228.261 708.031 228.474 708.895 228.474ZM723.71 230.273C722.488 230.273 721.431 229.989 720.539 229.42C719.647 228.847 718.957 228.054 718.468 227.043C717.985 226.026 717.744 224.855 717.744 223.531C717.744 222.213 717.985 221.043 718.468 220.02C718.957 218.991 719.63 218.187 720.488 217.608C721.352 217.023 722.349 216.73 723.479 216.73C724.19 216.73 724.874 216.861 725.533 217.122C726.192 217.378 726.783 217.773 727.306 218.307C727.835 218.835 728.252 219.503 728.559 220.31C728.866 221.111 729.019 222.06 729.019 223.156V223.906H718.792V222.568H727.468C727.468 221.727 727.298 220.972 726.957 220.301C726.621 219.625 726.153 219.091 725.55 218.699C724.954 218.307 724.263 218.111 723.479 218.111C722.65 218.111 721.92 218.332 721.289 218.776C720.658 219.219 720.164 219.804 719.806 220.531C719.454 221.259 719.275 222.054 719.269 222.918V223.719C719.269 224.759 719.448 225.668 719.806 226.446C720.17 227.219 720.684 227.818 721.349 228.244C722.013 228.67 722.8 228.884 723.71 228.884C724.329 228.884 724.871 228.787 725.337 228.594C725.809 228.401 726.204 228.142 726.522 227.818C726.846 227.489 727.09 227.128 727.255 226.736L728.695 227.205C728.496 227.756 728.17 228.264 727.715 228.73C727.266 229.196 726.704 229.571 726.028 229.855C725.357 230.134 724.585 230.273 723.71 230.273ZM733.879 221.818V230H732.362V216.909H733.837V218.963H733.973C734.28 218.293 734.757 217.756 735.405 217.352C736.058 216.943 736.865 216.739 737.825 216.739C738.706 216.739 739.479 216.923 740.143 217.293C740.814 217.656 741.334 218.193 741.703 218.903C742.078 219.614 742.266 220.486 742.266 221.52V230H740.749V221.614C740.749 220.54 740.447 219.69 739.845 219.065C739.249 218.44 738.447 218.128 737.442 218.128C736.754 218.128 736.143 218.276 735.609 218.571C735.075 218.866 734.652 219.293 734.339 219.849C734.033 220.401 733.879 221.057 733.879 221.818ZM751.553 230.273C750.332 230.273 749.275 229.989 748.383 229.42C747.491 228.847 746.8 228.054 746.312 227.043C745.829 226.026 745.587 224.855 745.587 223.531C745.587 222.213 745.829 221.043 746.312 220.02C746.8 218.991 747.474 218.187 748.332 217.608C749.195 217.023 750.192 216.73 751.323 216.73C752.033 216.73 752.718 216.861 753.377 217.122C754.036 217.378 754.627 217.773 755.15 218.307C755.678 218.835 756.096 219.503 756.403 220.31C756.71 221.111 756.863 222.06 756.863 223.156V223.906H746.636V222.568H755.312C755.312 221.727 755.141 220.972 754.8 220.301C754.465 219.625 753.996 219.091 753.394 218.699C752.798 218.307 752.107 218.111 751.323 218.111C750.494 218.111 749.763 218.332 749.133 218.776C748.502 219.219 748.008 219.804 747.65 220.531C747.298 221.259 747.119 222.054 747.113 222.918V223.719C747.113 224.759 747.292 225.668 747.65 226.446C748.013 227.219 748.528 227.818 749.192 228.244C749.857 228.67 750.644 228.884 751.553 228.884C752.173 228.884 752.715 228.787 753.181 228.594C753.653 228.401 754.048 228.142 754.366 227.818C754.69 227.489 754.934 227.128 755.099 226.736L756.539 227.205C756.34 227.756 756.013 228.264 755.559 228.73C755.11 229.196 754.548 229.571 753.871 229.855C753.201 230.134 752.428 230.273 751.553 230.273ZM760.206 230V216.909H761.68V218.92H761.791C762.053 218.261 762.507 217.73 763.155 217.327C763.808 216.918 764.547 216.713 765.371 216.713C765.496 216.713 765.635 216.716 765.788 216.722C765.942 216.727 766.07 216.733 766.172 216.739V218.281C766.104 218.27 765.984 218.253 765.814 218.23C765.643 218.207 765.459 218.196 765.26 218.196C764.578 218.196 763.97 218.341 763.436 218.631C762.908 218.915 762.49 219.31 762.183 219.815C761.876 220.321 761.723 220.898 761.723 221.545V230H760.206ZM772.417 230.298C771.627 230.298 770.906 230.145 770.252 229.838C769.599 229.526 769.079 229.077 768.692 228.491C768.306 227.901 768.113 227.185 768.113 226.344C768.113 225.696 768.235 225.151 768.479 224.707C768.724 224.264 769.07 223.901 769.519 223.616C769.968 223.332 770.499 223.108 771.113 222.943C771.727 222.778 772.403 222.651 773.141 222.56C773.874 222.469 774.494 222.389 774.999 222.321C775.511 222.253 775.9 222.145 776.167 221.997C776.434 221.849 776.567 221.611 776.567 221.281V220.974C776.567 220.082 776.3 219.381 775.766 218.869C775.238 218.352 774.477 218.094 773.482 218.094C772.539 218.094 771.769 218.301 771.173 218.716C770.582 219.131 770.167 219.619 769.928 220.182L768.488 219.662C768.783 218.946 769.192 218.375 769.715 217.949C770.238 217.517 770.823 217.207 771.471 217.02C772.119 216.827 772.775 216.73 773.44 216.73C773.94 216.73 774.46 216.795 774.999 216.926C775.545 217.057 776.05 217.284 776.516 217.608C776.982 217.926 777.36 218.372 777.65 218.946C777.94 219.514 778.085 220.236 778.085 221.111V230H776.567V227.929H776.474C776.292 228.315 776.022 228.69 775.664 229.054C775.306 229.418 774.857 229.716 774.317 229.949C773.778 230.182 773.144 230.298 772.417 230.298ZM772.621 228.909C773.428 228.909 774.127 228.73 774.718 228.372C775.309 228.014 775.763 227.54 776.082 226.949C776.406 226.352 776.567 225.696 776.567 224.98V223.088C776.454 223.196 776.263 223.293 775.996 223.378C775.735 223.463 775.431 223.54 775.085 223.608C774.744 223.67 774.403 223.724 774.062 223.77C773.721 223.815 773.414 223.855 773.141 223.889C772.403 223.98 771.772 224.122 771.249 224.315C770.727 224.509 770.326 224.776 770.048 225.116C769.769 225.452 769.63 225.884 769.63 226.412C769.63 227.207 769.914 227.824 770.482 228.261C771.05 228.693 771.763 228.909 772.621 228.909ZM787.276 216.909V218.23H781.029V216.909H787.276ZM782.981 213.773H784.506V226.582C784.506 227.128 784.6 227.557 784.788 227.869C784.975 228.176 785.219 228.395 785.521 228.526C785.822 228.651 786.143 228.713 786.484 228.713C786.683 228.713 786.853 228.702 786.995 228.679C787.137 228.651 787.262 228.622 787.37 228.594L787.694 229.966C787.546 230.023 787.364 230.074 787.148 230.119C786.933 230.17 786.665 230.196 786.347 230.196C785.79 230.196 785.254 230.074 784.737 229.83C784.225 229.585 783.805 229.222 783.475 228.739C783.146 228.256 782.981 227.656 782.981 226.94V213.773ZM795.669 230.273C794.538 230.273 793.538 229.986 792.669 229.412C791.805 228.838 791.129 228.045 790.641 227.034C790.152 226.017 789.908 224.844 789.908 223.514C789.908 222.173 790.152 220.994 790.641 219.977C791.129 218.955 791.805 218.159 792.669 217.591C793.538 217.017 794.538 216.73 795.669 216.73C796.8 216.73 797.797 217.017 798.661 217.591C799.524 218.165 800.2 218.96 800.689 219.977C801.183 220.994 801.43 222.173 801.43 223.514C801.43 224.844 801.186 226.017 800.697 227.034C800.209 228.045 799.53 228.838 798.661 229.412C797.797 229.986 796.8 230.273 795.669 230.273ZM795.669 228.884C796.578 228.884 797.348 228.639 797.979 228.151C798.609 227.662 799.087 227.011 799.411 226.199C799.74 225.386 799.905 224.491 799.905 223.514C799.905 222.537 799.74 221.639 799.411 220.821C799.087 220.003 798.609 219.347 797.979 218.852C797.348 218.358 796.578 218.111 795.669 218.111C794.766 218.111 793.996 218.358 793.359 218.852C792.729 219.347 792.249 220.003 791.919 220.821C791.595 221.639 791.433 222.537 791.433 223.514C791.433 224.491 791.595 225.386 791.919 226.199C792.249 227.011 792.729 227.662 793.359 228.151C793.99 228.639 794.76 228.884 795.669 228.884ZM804.761 230V216.909H806.235V218.92H806.346C806.607 218.261 807.062 217.73 807.71 217.327C808.363 216.918 809.102 216.713 809.925 216.713C810.05 216.713 810.19 216.716 810.343 216.722C810.496 216.727 810.624 216.733 810.727 216.739V218.281C810.658 218.27 810.539 218.253 810.369 218.23C810.198 218.207 810.013 218.196 809.815 218.196C809.133 218.196 808.525 218.341 807.991 218.631C807.462 218.915 807.045 219.31 806.738 219.815C806.431 220.321 806.278 220.898 806.278 221.545V230H804.761ZM816.997 222.636C816.997 224.682 816.739 226.614 816.222 228.432C815.705 230.25 814.963 231.955 813.997 233.545H812.616C813.031 232.875 813.409 232.116 813.75 231.27C814.097 230.423 814.395 229.52 814.645 228.56C814.895 227.599 815.088 226.616 815.224 225.611C815.361 224.605 815.429 223.614 815.429 222.636C815.429 221.324 815.31 220 815.071 218.665C814.832 217.33 814.5 216.062 814.074 214.864C813.653 213.665 813.168 212.619 812.616 211.727H813.997C814.963 213.324 815.705 215.031 816.222 216.849C816.739 218.668 816.997 220.597 816.997 222.636Z" fill="black"/>
<path d="M772.199 356.188L771.273 356.449C771.182 356.187 771.053 355.951 770.886 355.739C770.72 355.527 770.502 355.358 770.233 355.233C769.968 355.108 769.638 355.045 769.244 355.045C768.653 355.045 768.169 355.186 767.79 355.466C767.411 355.746 767.222 356.108 767.222 356.551C767.222 356.926 767.35 357.231 767.608 357.466C767.869 357.697 768.271 357.881 768.812 358.017L770.131 358.341C770.862 358.519 771.409 358.801 771.773 359.188C772.14 359.574 772.324 360.059 772.324 360.642C772.324 361.134 772.188 361.572 771.915 361.955C771.642 362.337 771.261 362.638 770.773 362.858C770.288 363.074 769.725 363.182 769.085 363.182C768.233 363.182 767.53 362.991 766.977 362.608C766.424 362.222 766.07 361.665 765.915 360.938L766.886 360.699C767.011 361.218 767.256 361.61 767.619 361.875C767.987 362.14 768.47 362.273 769.068 362.273C769.739 362.273 770.275 362.123 770.676 361.824C771.078 361.521 771.278 361.142 771.278 360.688C771.278 360.335 771.161 360.04 770.926 359.801C770.691 359.559 770.335 359.381 769.858 359.267L768.432 358.926C767.674 358.744 767.114 358.456 766.75 358.062C766.386 357.669 766.205 357.18 766.205 356.597C766.205 356.116 766.335 355.693 766.597 355.33C766.858 354.962 767.218 354.674 767.676 354.466C768.134 354.258 768.657 354.153 769.244 354.153C770.044 354.153 770.682 354.335 771.159 354.699C771.64 355.059 771.987 355.555 772.199 356.188ZM774.538 366.273V354.273H775.521V355.938H775.641C775.762 355.676 775.929 355.409 776.141 355.136C776.353 354.86 776.633 354.627 776.982 354.438C777.334 354.248 777.777 354.153 778.311 354.153C779.031 354.153 779.66 354.343 780.197 354.722C780.739 355.097 781.16 355.623 781.459 356.301C781.762 356.975 781.913 357.761 781.913 358.659C781.913 359.561 781.762 360.35 781.459 361.028C781.16 361.706 780.739 362.235 780.197 362.614C779.66 362.992 779.035 363.182 778.322 363.182C777.796 363.182 777.355 363.087 776.999 362.898C776.646 362.708 776.36 362.475 776.141 362.199C775.925 361.919 775.758 361.646 775.641 361.381H775.55V366.273H774.538ZM775.538 358.642C775.538 359.347 775.643 359.972 775.851 360.517C776.063 361.059 776.366 361.485 776.76 361.795C777.158 362.102 777.639 362.256 778.203 362.256C778.783 362.256 779.271 362.097 779.669 361.778C780.071 361.456 780.375 361.023 780.584 360.477C780.796 359.932 780.902 359.32 780.902 358.642C780.902 357.972 780.798 357.367 780.589 356.83C780.385 356.292 780.082 355.866 779.68 355.551C779.279 355.233 778.786 355.074 778.203 355.074C777.635 355.074 777.152 355.227 776.754 355.534C776.357 355.837 776.054 356.258 775.845 356.795C775.641 357.33 775.538 357.945 775.538 358.642ZM787.524 363.182C786.77 363.182 786.104 362.991 785.524 362.608C784.948 362.225 784.498 361.697 784.172 361.023C783.846 360.345 783.683 359.562 783.683 358.676C783.683 357.782 783.846 356.996 784.172 356.318C784.498 355.636 784.948 355.106 785.524 354.727C786.104 354.345 786.77 354.153 787.524 354.153C788.278 354.153 788.943 354.345 789.518 354.727C790.094 355.11 790.545 355.64 790.871 356.318C791.2 356.996 791.365 357.782 791.365 358.676C791.365 359.562 791.202 360.345 790.876 361.023C790.551 361.697 790.098 362.225 789.518 362.608C788.943 362.991 788.278 363.182 787.524 363.182ZM787.524 362.256C788.13 362.256 788.643 362.093 789.064 361.767C789.484 361.441 789.803 361.008 790.018 360.466C790.238 359.924 790.348 359.328 790.348 358.676C790.348 358.025 790.238 357.426 790.018 356.881C789.803 356.335 789.484 355.898 789.064 355.568C788.643 355.239 788.13 355.074 787.524 355.074C786.922 355.074 786.409 355.239 785.984 355.568C785.564 355.898 785.244 356.335 785.024 356.881C784.808 357.426 784.7 358.025 784.7 358.676C784.7 359.328 784.808 359.924 785.024 360.466C785.244 361.008 785.564 361.441 785.984 361.767C786.405 362.093 786.918 362.256 787.524 362.256ZM794.597 357.545V363H793.585V354.273H794.568V355.642H794.659C794.864 355.195 795.182 354.837 795.614 354.568C796.049 354.295 796.587 354.159 797.227 354.159C797.814 354.159 798.33 354.282 798.773 354.528C799.22 354.771 799.566 355.129 799.812 355.602C800.062 356.076 800.188 356.657 800.188 357.347V363H799.176V357.409C799.176 356.693 798.975 356.127 798.574 355.71C798.176 355.294 797.642 355.085 796.972 355.085C796.513 355.085 796.106 355.184 795.75 355.381C795.394 355.578 795.112 355.862 794.903 356.233C794.699 356.6 794.597 357.038 794.597 357.545ZM808.714 356.188L807.788 356.449C807.697 356.187 807.569 355.951 807.402 355.739C807.235 355.527 807.018 355.358 806.749 355.233C806.483 355.108 806.154 355.045 805.76 355.045C805.169 355.045 804.684 355.186 804.305 355.466C803.927 355.746 803.737 356.108 803.737 356.551C803.737 356.926 803.866 357.231 804.124 357.466C804.385 357.697 804.786 357.881 805.328 358.017L806.646 358.341C807.377 358.519 807.925 358.801 808.288 359.188C808.656 359.574 808.839 360.059 808.839 360.642C808.839 361.134 808.703 361.572 808.43 361.955C808.158 362.337 807.777 362.638 807.288 362.858C806.804 363.074 806.241 363.182 805.601 363.182C804.749 363.182 804.046 362.991 803.493 362.608C802.94 362.222 802.586 361.665 802.43 360.938L803.402 360.699C803.527 361.218 803.771 361.61 804.135 361.875C804.502 362.14 804.985 362.273 805.584 362.273C806.254 362.273 806.79 362.123 807.192 361.824C807.593 361.521 807.794 361.142 807.794 360.688C807.794 360.335 807.677 360.04 807.442 359.801C807.207 359.559 806.851 359.381 806.374 359.267L804.947 358.926C804.19 358.744 803.629 358.456 803.266 358.062C802.902 357.669 802.72 357.18 802.72 356.597C802.72 356.116 802.851 355.693 803.112 355.33C803.374 354.962 803.733 354.674 804.192 354.466C804.65 354.258 805.173 354.153 805.76 354.153C806.559 354.153 807.197 354.335 807.675 354.699C808.156 355.059 808.502 355.555 808.714 356.188ZM814.446 363.182C813.692 363.182 813.026 362.991 812.446 362.608C811.87 362.225 811.42 361.697 811.094 361.023C810.768 360.345 810.605 359.562 810.605 358.676C810.605 357.782 810.768 356.996 811.094 356.318C811.42 355.636 811.87 355.106 812.446 354.727C813.026 354.345 813.692 354.153 814.446 354.153C815.2 354.153 815.865 354.345 816.44 354.727C817.016 355.11 817.467 355.64 817.793 356.318C818.122 356.996 818.287 357.782 818.287 358.676C818.287 359.562 818.124 360.345 817.798 361.023C817.473 361.697 817.02 362.225 816.44 362.608C815.865 362.991 815.2 363.182 814.446 363.182ZM814.446 362.256C815.052 362.256 815.565 362.093 815.986 361.767C816.406 361.441 816.724 361.008 816.94 360.466C817.16 359.924 817.27 359.328 817.27 358.676C817.27 358.025 817.16 357.426 816.94 356.881C816.724 356.335 816.406 355.898 815.986 355.568C815.565 355.239 815.052 355.074 814.446 355.074C813.844 355.074 813.33 355.239 812.906 355.568C812.486 355.898 812.166 356.335 811.946 356.881C811.73 357.426 811.622 358.025 811.622 358.676C811.622 359.328 811.73 359.924 811.946 360.466C812.166 361.008 812.486 361.441 812.906 361.767C813.327 362.093 813.84 362.256 814.446 362.256ZM820.507 363V354.273H821.49V355.614H821.564C821.738 355.174 822.041 354.82 822.473 354.551C822.909 354.278 823.401 354.142 823.95 354.142C824.034 354.142 824.126 354.144 824.229 354.148C824.331 354.152 824.416 354.155 824.484 354.159V355.188C824.439 355.18 824.359 355.169 824.246 355.153C824.132 355.138 824.009 355.131 823.876 355.131C823.422 355.131 823.017 355.227 822.661 355.42C822.308 355.61 822.03 355.873 821.825 356.21C821.621 356.547 821.518 356.932 821.518 357.364V363H820.507ZM829.473 363.182C828.659 363.182 827.954 362.992 827.359 362.614C826.765 362.231 826.304 361.703 825.979 361.028C825.657 360.35 825.496 359.57 825.496 358.688C825.496 357.809 825.657 357.028 825.979 356.347C826.304 355.661 826.753 355.125 827.325 354.739C827.901 354.348 828.566 354.153 829.32 354.153C829.793 354.153 830.25 354.241 830.689 354.415C831.128 354.585 831.522 354.848 831.871 355.205C832.223 355.557 832.501 356.002 832.706 356.54C832.911 357.074 833.013 357.706 833.013 358.438V358.938H826.195V358.045H831.979C831.979 357.485 831.865 356.981 831.638 356.534C831.414 356.083 831.102 355.727 830.7 355.466C830.303 355.205 829.842 355.074 829.32 355.074C828.767 355.074 828.28 355.222 827.859 355.517C827.439 355.812 827.109 356.203 826.871 356.688C826.636 357.172 826.517 357.703 826.513 358.278V358.812C826.513 359.506 826.632 360.112 826.871 360.631C827.113 361.146 827.456 361.545 827.899 361.83C828.342 362.114 828.867 362.256 829.473 362.256C829.886 362.256 830.248 362.191 830.558 362.062C830.873 361.934 831.136 361.761 831.348 361.545C831.564 361.326 831.727 361.085 831.837 360.824L832.797 361.136C832.664 361.504 832.446 361.843 832.143 362.153C831.844 362.464 831.469 362.714 831.018 362.903C830.571 363.089 830.056 363.182 829.473 363.182ZM838.384 363.182C837.668 363.182 837.041 362.992 836.503 362.614C835.965 362.235 835.545 361.706 835.241 361.028C834.942 360.35 834.793 359.561 834.793 358.659C834.793 357.761 834.942 356.975 835.241 356.301C835.545 355.623 835.967 355.097 836.509 354.722C837.05 354.343 837.681 354.153 838.401 354.153C838.931 354.153 839.372 354.248 839.724 354.438C840.077 354.623 840.359 354.854 840.571 355.131C840.783 355.407 840.948 355.676 841.065 355.938H841.156V351.364H842.173V363H841.185V361.381H841.065C840.948 361.646 840.781 361.919 840.565 362.199C840.349 362.475 840.063 362.708 839.707 362.898C839.355 363.087 838.914 363.182 838.384 363.182ZM838.503 362.256C839.067 362.256 839.548 362.102 839.946 361.795C840.344 361.485 840.647 361.059 840.855 360.517C841.067 359.972 841.173 359.347 841.173 358.642C841.173 357.945 841.069 357.33 840.861 356.795C840.652 356.258 840.349 355.837 839.952 355.534C839.554 355.227 839.071 355.074 838.503 355.074C837.92 355.074 837.427 355.233 837.026 355.551C836.628 355.866 836.325 356.292 836.116 356.83C835.912 357.367 835.81 357.972 835.81 358.642C835.81 359.32 835.914 359.932 836.122 360.477C836.33 361.023 836.634 361.456 837.031 361.778C837.433 362.097 837.923 362.256 838.503 362.256ZM849.764 363V351.364H850.781V355.938H850.872C850.986 355.676 851.149 355.407 851.361 355.131C851.577 354.854 851.859 354.623 852.207 354.438C852.56 354.248 853.003 354.153 853.537 354.153C854.253 354.153 854.882 354.343 855.423 354.722C855.965 355.097 856.387 355.623 856.69 356.301C856.993 356.975 857.145 357.761 857.145 358.659C857.145 359.561 856.993 360.35 856.69 361.028C856.391 361.706 855.971 362.235 855.429 362.614C854.891 362.992 854.266 363.182 853.554 363.182C853.024 363.182 852.58 363.087 852.224 362.898C851.872 362.708 851.588 362.475 851.372 362.199C851.156 361.919 850.99 361.646 850.872 361.381H850.747V363H849.764ZM850.764 358.642C850.764 359.347 850.868 359.972 851.077 360.517C851.289 361.059 851.592 361.485 851.986 361.795C852.384 362.102 852.865 362.256 853.429 362.256C854.009 362.256 854.499 362.097 854.901 361.778C855.302 361.456 855.607 361.023 855.815 360.477C856.024 359.932 856.128 359.32 856.128 358.642C856.128 357.972 856.024 357.367 855.815 356.83C855.611 356.292 855.308 355.866 854.906 355.551C854.505 355.233 854.012 355.074 853.429 355.074C852.861 355.074 852.378 355.227 851.98 355.534C851.586 355.837 851.285 356.258 851.077 356.795C850.868 357.33 850.764 357.945 850.764 358.642ZM859.759 366.273C859.558 366.273 859.37 366.254 859.196 366.216C859.022 366.178 858.884 366.136 858.781 366.091L859.054 365.199C859.399 365.305 859.705 365.343 859.974 365.312C860.243 365.286 860.482 365.165 860.69 364.949C860.899 364.737 861.084 364.411 861.247 363.972L861.565 363.085L858.355 354.273H859.452L862.043 361.665H862.122L864.713 354.273H865.81L862.116 364.381C861.961 364.801 861.77 365.152 861.543 365.432C861.315 365.716 861.052 365.926 860.753 366.062C860.457 366.203 860.126 366.273 859.759 366.273Z" fill="black"/>
<path d="M888.74 352.902H894.692H896.315H902.267V354.512H896.315H894.692H888.74V352.902Z" fill="#0F006C"/>
<path d="M904.431 351.293H912.007V352.902H904.431V351.293Z" fill="#0F006C"/>
<path d="M904.431 354.512H910.925V356.122H904.431V354.512Z" fill="#0F006C"/>
<path d="M903.89 357.732H909.842V359.341H903.89V357.732Z" fill="#0F006C"/>
<path d="M886.575 351.293H879V352.902H886.575V351.293Z" fill="#0F006C"/>
<path d="M886.575 354.512H880.082V356.122H886.575V354.512Z" fill="#0F006C"/>
<path d="M887.116 357.732H881.164V359.341H887.116V357.732Z" fill="#0F006C"/>
<path d="M927.883 364.995H930.43V366.317H923.049V364.995H925.216V351.112H923.049V349.79H935.93V353.662H934.406V351.632L933.93 351.112H927.883V357.581H932.192L932.549 357.227V356.094H934.073V360.415H932.549V359.281L932.192 358.904H927.883V364.995Z" fill="#0F006C"/>
<path d="M937.883 351.112V349.79H940.359C941.073 349.79 941.843 349.759 942.669 349.696C943.51 349.633 944.319 349.601 945.097 349.601C945.97 349.601 946.827 349.688 947.668 349.861C948.509 350.018 949.255 350.294 949.906 350.687C950.557 351.081 951.081 351.608 951.478 352.269C951.89 352.915 952.097 353.725 952.097 354.701C952.097 355.63 951.89 356.432 951.478 357.109C951.065 357.77 950.517 358.313 949.835 358.738C949.168 359.163 948.39 359.478 947.502 359.683C946.629 359.887 945.724 359.99 944.787 359.99C944.692 359.99 944.549 359.99 944.359 359.99C944.168 359.99 943.962 359.99 943.74 359.99C943.534 359.974 943.335 359.958 943.145 359.942C942.954 359.927 942.811 359.911 942.716 359.895V364.995H945.097V366.317H937.883V364.995H940.05V351.112H937.883ZM942.716 358.549C942.795 358.581 942.915 358.605 943.073 358.62C943.248 358.62 943.43 358.628 943.621 358.644C943.811 358.66 943.994 358.668 944.168 358.668C944.359 358.668 944.502 358.668 944.597 358.668C945.216 358.668 945.795 358.597 946.335 358.455C946.891 358.298 947.375 358.062 947.787 357.747C948.2 357.432 948.525 357.023 948.763 356.519C949.001 356.015 949.121 355.409 949.121 354.701C949.121 353.41 948.708 352.458 947.883 351.844C947.073 351.23 945.962 350.924 944.549 350.924C944.121 350.924 943.764 350.939 943.478 350.971C943.192 350.986 942.938 351.018 942.716 351.065V358.549Z" fill="#0F006C"/>
<path d="M956.858 366.317H951.025V364.995H952.882L959.048 349.79H961.572L967.214 364.995H969V366.317H962.191V364.995H964.31L962.762 360.84H956.429L954.81 364.995H956.858V366.317ZM956.977 359.517H962.358L960.405 354.064L959.81 351.561H959.715L959.024 354.111L956.977 359.517Z" fill="#0F006C"/>
<path d="M896.315 359.341V357.732H894.692V359.341H896.315Z" fill="#0F006C"/>
<path fill-rule="evenodd" clip-rule="evenodd" d="M895.503 347C894.517 347 892.868 347.364 891.316 347.77C889.93 348.137 888.554 348.536 887.188 348.966C886.794 349.091 886.446 349.32 886.181 349.627C885.917 349.934 885.749 350.307 885.695 350.702C884.842 356.857 886.82 361.42 889.22 364.438C890.237 365.729 891.451 366.866 892.819 367.811C893.292 368.138 893.794 368.425 894.318 368.67C894.72 368.852 895.149 369 895.503 369C895.858 369 896.288 368.852 896.689 368.67C897.213 368.425 897.714 368.138 898.188 367.811C899.556 366.866 900.769 365.729 901.787 364.438C904.187 361.42 906.164 356.857 905.312 350.702C905.258 350.307 905.089 349.934 904.825 349.627C904.561 349.32 904.212 349.091 903.819 348.966C902.878 348.671 901.278 348.183 899.691 347.77C898.139 347.364 896.49 347 895.503 347ZM896.315 357.732V359.341H894.692V357.732H896.315ZM896.315 357.732V354.512H902.267V352.902H896.315V348.677C897.098 348.787 898.076 349.018 899.012 349.267C900.341 349.619 901.682 350.036 902.471 350.288C902.8 350.395 903.092 350.59 903.314 350.852C903.535 351.115 903.676 351.432 903.721 351.77C904.436 357.025 902.778 360.919 900.768 363.496C899.915 364.598 898.899 365.568 897.752 366.375C897.356 366.654 896.936 366.899 896.497 367.109C896.437 367.136 896.376 367.163 896.315 367.188V359.341H901.185V357.732H896.315ZM894.692 359.341V367.188C894.631 367.163 894.57 367.136 894.51 367.109C894.071 366.899 893.651 366.654 893.254 366.375C892.108 365.568 891.091 364.598 890.239 363.496C888.228 360.919 886.571 357.025 887.285 351.77C887.331 351.432 887.472 351.115 887.693 350.852C887.914 350.59 888.207 350.395 888.536 350.288C889.681 349.921 890.834 349.58 891.995 349.267C892.931 349.018 893.909 348.787 894.692 348.677V352.902H888.74V354.512H894.692V357.732H889.822V359.341H894.692Z" fill="#0F006C"/>
</svg>
